<?xml version="1.0" standalone="no"?>
<!DOCTYPE svg PUBLIC "-//W3C//DTD SVG 20010904//EN"
 "http://www.w3.org/TR/2001/REC-SVG-20010904/DTD/svg10.dtd">
<svg version="1.0" xmlns="http://www.w3.org/2000/svg"
 width="368.000000pt" height="368.000000pt" viewBox="0 0 368.000000 368.000000"
 preserveAspectRatio="xMidYMid meet">
<metadata>
Created by potrace 1.11, written by Peter Selinger 2001-2013
</metadata>
<g transform="translate(0.000000,368.000000) scale(0.100000,-0.100000)"
fill="#000000" stroke="none">
<path d="M1737 2836 c-114 -48 -172 -105 -219 -217 -33 -80 -33 -255 1 -354
13 -38 118 -258 233 -489 234 -467 272 -564 266 -667 -7 -125 -67 -179 -200
-179 -83 0 -147 15 -236 55 -34 15 -64 26 -66 24 -2 -2 -15 -25 -30 -51 l-27
-47 43 -27 c74 -47 200 -85 302 -91 210 -12 380 76 454 235 23 48 27 70 27
147 -1 62 -7 107 -19 145 -11 30 -122 266 -248 525 -126 259 -239 497 -250
530 -32 90 -31 206 2 265 28 51 92 90 147 90 52 0 140 -35 198 -79 l52 -40 38
39 c22 23 35 45 32 53 -8 22 -124 100 -187 127 -42 18 -79 24 -155 27 -89 3
-106 1 -158 -21z"/>
</g>
</svg>
